PathFileType	4	(X/Y/Z)	s02c0301.trc
DataRate	CameraRate	NumFrames	NumMarkers	Units	OrigDataRate	OrigDataStartFrame	OrigNumFrames
200	200	6	51	mm	200	1750	2000
Frame#	Time	racr			lacr			c7			jug			rlel			rdr			llel			ldr			s2			lic			ric			lasi			rasi			rpsi			lpsi			rgt			lgt			rth1			rth2			rth3			rth4			rlfc			rmfc			rsh1			rsh2			rsh3			rsh4			rlmal			rmmal			rcal			rtoe			rmt5			rmt1			lth1			lth2			lth4			lth3			llfc			lmfc			lsh1			lsh2			lsh3			lsh4			llmal			lmmal			lcal			ltoe			lmt5			SBIKE			LBIKE			RBIKE			
		X1	Y1	Z1	X2	Y2	Z2	X3	Y3	Z3	X4	Y4	Z4	X5	Y5	Z5	X6	Y6	Z6	X7	Y7	Z7	X8	Y8	Z8	X9	Y9	Z9	X10	Y10	Z10	X11	Y11	Z11	X12	Y12	Z12	X13	Y13	Z13	X14	Y14	Z14	X15	Y15	Z15	X16	Y16	Z16	X17	Y17	Z17	X18	Y18	Z18	X19	Y19	Z19	X20	Y20	Z20	X21	Y21	Z21	X22	Y22	Z22	X23	Y23	Z23	X24	Y24	Z24	X25	Y25	Z25	X26	Y26	Z26	X27	Y27	Z27	X28	Y28	Z28	X29	Y29	Z29	X30	Y30	Z30	X31	Y31	Z31	X32	Y32	Z32	X33	Y33	Z33	X34	Y34	Z34	X35	Y35	Z35	X36	Y36	Z36	X37	Y37	Z37	X38	Y38	Z38	X39	Y39	Z39	X40	Y40	Z40	X41	Y41	Z41	X42	Y42	Z42	X43	Y43	Z43	X44	Y44	Z44	X45	Y45	Z45	X46	Y46	Z46	X47	Y47	Z47	X48	Y48	Z48	X49	Y49	Z49	X50	Y50	Z50	X51	Y51	Z51	
1750	8.7500	565.517279	1218.650974	-88.666129	574.749006	1268.016066	-431.260744	570.475940	1280.914716	-257.624327	504.989714	1155.949752	-266.234508	559.147920	957.226613	-24.517802	714.479502	841.970500	-115.205879	543.796325	1004.346841	-556.789643	705.372926	847.353537	-510.811725	15.462206	1151.632359	-317.410908	171.036861	1135.436766	-449.143921	134.574263	1134.611123	-171.590748	195.624225	1087.457446	-424.767610	183.024990	1101.872183	-197.705484	53.496510	1196.050112	-271.309602	71.121892	1209.435346	-354.327477	103.370796	1075.792821	-127.085724	86.713651	1050.455704	-494.210670	184.053431	1053.661230	-130.591001	270.393556	1041.361332	-137.250700	340.489385	998.417587	-112.478998	281.810974	1065.907507	-163.815345	462.747488	914.753621	-146.046939	458.350750	894.150089	-258.672107	449.275616	802.054513	-130.761056	433.363639	715.815125	-149.638006	382.389039	646.290170	-145.408428	446.650574	713.495898	-187.148123	323.580648	537.860497	-151.631465	332.347661	556.177866	-231.532729	244.963726	495.402141	-191.262882	528.469555	457.719167	-199.256574	421.191251	454.021380	-136.101544	444.868204	464.573724	-244.460620	171.659678	926.993695	-512.854179	227.235252	859.906148	-506.652838	255.196634	873.220707	-486.081570	240.835151	772.008640	-509.648871	277.902752	680.338867	-484.593704	274.533603	650.484217	-385.634180	235.912967	585.273850	-506.608087	219.169894	502.203908	-489.011346	160.311506	433.443766	-490.139196	238.102732	496.985356	-453.218890	103.072853	347.227649	-472.844503	118.535377	338.353402	-396.259956	27.725866	326.159780	-434.407134	277.073821	181.869760	-440.958349	172.323935	211.099737	-500.534005	-129.131690	870.424219	-314.560503	32.900242	82.176861	-515.267554	32.958369	82.205929	-115.073590	
1751	8.7550	564.852033	1218.661342	-88.875735	573.927832	1268.646863	-432.018899	569.943815	1281.378125	-257.982554	504.268592	1156.502611	-266.748842	558.495325	957.208586	-25.125373	714.226329	841.972407	-115.398937	543.726833	1004.719095	-556.838197	705.273776	847.520993	-511.051014	14.761760	1153.175536	-317.234188	169.729242	1137.535537	-449.531536	134.220608	1135.006885	-170.907995	194.289889	1089.310622	-425.209753	182.448618	1101.784936	-197.868714	53.029319	1197.205419	-270.874564	71.537216	1210.893330	-354.177096	102.637809	1075.198381	-127.776399	85.738223	1053.057383	-494.628620	183.593329	1051.593267	-131.380412	269.640922	1037.388310	-138.613798	338.938695	993.185324	-113.705779	281.655307	1062.394783	-164.249819	459.753187	906.591208	-147.924652	454.974780	886.612429	-260.146682	447.091083	793.905872	-131.750944	433.387462	707.383571	-150.810455	383.821186	636.741517	-146.202143	446.574577	705.307589	-188.387915	329.210651	527.353069	-152.498777	335.762238	545.900955	-232.471089	249.777246	483.492677	-191.500433	534.075092	451.794700	-199.190320	427.016083	445.708895	-136.249369	450.329750	456.595603	-244.380852	172.570708	930.885250	-512.970771	229.430216	864.904973	-506.939752	257.065922	878.727945	-486.251373	244.990254	777.297719	-509.945974	282.769411	685.276322	-486.073247	279.531041	655.409365	-386.833073	239.038566	590.511937	-507.617855	220.060525	507.890371	-489.574544	159.461876	440.850030	-490.537524	238.985014	502.319435	-453.896606	99.928926	356.224609	-472.916182	115.190316	347.300835	-396.418234	24.101742	336.878660	-434.468800	270.585221	187.770459	-440.938800	166.381415	218.973884	-500.526841	-129.109365	870.414663	-314.571451	32.905411	82.143713	-515.253514	32.956799	82.210581	-115.092013	
1752	8.7600	564.226788	1218.763405	-89.166485	573.044537	1269.280479	-432.761971	569.413709	1281.751762	-258.318677	503.617471	1156.978026	-267.394306	557.982176	957.231793	-25.714924	714.049830	841.963954	-115.624842	543.659373	1005.020630	-556.821935	705.173431	847.699275	-511.259837	14.068446	1154.538491	-317.034890	168.447916	1139.399759	-449.758133	133.957319	1135.018428	-170.788920	193.023161	1091.105944	-425.762286	181.963815	1101.523595	-197.964723	52.518798	1198.041824	-270.320520	71.846241	1212.246860	-353.966899	101.878654	1074.383382	-128.520216	84.810471	1055.521632	-494.974644	183.166228	1049.195021	-132.179349	269.030619	1033.476593	-139.167184	337.248336	987.371760	-114.953805	281.471436	1057.611299	-165.394627	456.294487	898.318640	-149.647803	451.285357	878.756098	-261.705567	444.799814	785.346896	-132.990853	433.027130	698.483727	-151.916628	385.095434	626.783270	-147.175268	446.301933	696.170211	-189.721847	332.695256	516.147845	-153.440490	339.181839	534.953605	-233.308342	254.330395	471.359055	-191.769971	539.284964	445.010252	-199.189546	432.145400	437.195685	-136.311421	455.468461	448.259059	-244.269124	173.612053	934.794275	-512.807551	231.745726	870.111767	-507.314526	259.045627	884.346846	-486.466501	249.198078	782.870313	-510.805827	287.891757	690.498015	-487.678406	285.000463	660.542532	-388.016757	242.486373	595.916730	-508.618418	221.458701	514.047922	-490.386072	159.101286	448.418100	-491.005142	240.223666	508.137394	-454.547358	97.284850	365.780437	-473.113104	112.662338	356.550587	-396.592529	21.065343	348.025781	-434.552733	264.440288	194.145794	-441.018933	160.921759	227.305595	-500.566787	-129.118833	870.418814	-314.592188	32.914936	82.160538	-515.260155	32.961173	82.214528	-115.089133	
1753	8.7650	563.714867	1218.990440	-89.460296	572.140671	1270.016938	-433.623357	568.836830	1282.110011	-258.794827	502.993770	1157.286354	-268.036578	557.393999	957.260486	-26.416633	713.894244	841.979831	-115.853496	543.595824	1005.303918	-556.777407	705.072356	847.884270	-511.427113	13.498625	1155.584924	-316.654113	167.185778	1141.216591	-450.085291	133.626738	1134.708354	-170.651626	191.835906	1092.785320	-426.395931	181.460755	1101.014790	-198.161266	52.093456	1198.699603	-269.826396	71.696052	1213.329576	-353.471554	101.184661	1073.387457	-129.252074	83.900893	1057.878788	-495.324832	182.720704	1046.402332	-133.009911	268.252489	1028.897618	-140.112613	335.441966	981.165748	-116.096506	281.211583	1052.882308	-166.770231	452.283504	888.997224	-151.303664	447.340855	870.195972	-263.125119	442.175709	776.472742	-134.167177	429.628363	687.642500	-154.793760	386.181992	616.347849	-148.134639	445.398802	687.078237	-190.903599	336.354177	505.427956	-153.848383	342.517506	523.548446	-234.011629	258.620973	459.080033	-192.065528	544.169183	437.414652	-199.205630	437.106195	428.031929	-136.523389	460.329873	439.467874	-244.448431	174.633569	938.876356	-513.024396	234.148167	875.432740	-507.760901	261.127555	890.156739	-486.798325	253.524899	788.592035	-511.774649	293.301491	695.762128	-489.297284	290.832064	665.829615	-389.209056	246.392445	601.618305	-509.720160	223.215091	520.328610	-491.097014	159.322695	456.299623	-491.485972	242.035140	513.962521	-455.487137	95.243826	375.763684	-473.297200	110.391890	366.297223	-396.815949	18.518787	359.580238	-434.565070	258.721592	201.027906	-441.103897	155.841525	236.089951	-500.611073	-129.099081	870.422896	-314.606987	32.911149	82.124809	-515.253276	32.965471	82.195355	-115.086584	
1754	8.7700	563.255122	1219.239936	-89.893304	571.220217	1270.754748	-434.400404	568.282775	1282.508908	-259.382231	502.361995	1157.836318	-268.713998	556.981476	957.381204	-27.064578	713.708456	842.019523	-116.108698	543.542864	1005.646857	-556.647309	704.972127	848.071328	-511.547018	13.136744	1156.414040	-316.485475	166.236121	1142.457940	-450.737155	133.244240	1134.161640	-171.120058	190.769463	1094.263132	-426.990788	181.038232	1100.380614	-198.330564	51.653681	1199.247332	-269.283874	71.303697	1214.549729	-352.950002	100.498165	1072.074036	-130.122175	83.089277	1060.058480	-495.727741	182.288185	1043.266135	-133.826709	267.417901	1023.910619	-140.981972	333.444420	974.494858	-117.305708	281.031710	1048.123584	-167.235704	448.222069	879.475892	-153.324129	442.982388	861.235432	-264.561253	439.262324	767.175843	-135.560927	431.227084	678.875275	-154.969034	386.989481	605.739033	-149.197693	444.916094	677.548044	-191.652514	339.551612	494.527818	-154.282213	346.349067	511.873088	-235.118040	262.598497	446.735537	-192.362761	548.720686	429.211605	-199.266298	441.755918	418.475431	-136.649791	464.766172	430.087012	-244.671187	175.729907	942.917872	-513.189969	236.616603	880.831230	-508.318199	263.239885	895.992432	-487.250404	257.939352	794.452336	-512.837633	298.931351	701.139094	-490.965094	296.981579	671.279919	-390.580754	250.661567	607.476201	-510.757970	225.351928	526.914035	-491.788329	159.895973	464.526702	-492.004384	244.125012	520.212560	-456.261587	93.494020	386.109664	-473.509062	108.697559	376.395157	-396.972043	16.419342	371.413474	-434.643446	253.507414	208.330801	-441.064807	151.306229	245.304827	-500.600508	-129.090293	870.410276	-314.605306	32.904938	82.144861	-515.249613	32.963469	82.216351	-115.093595	
1755	8.7750	562.821880	1219.560124	-90.394440	570.305580	1271.567283	-435.244966	567.730895	1282.896130	-259.992579	501.781065	1158.273172	-269.496992	556.412273	957.476296	-27.836713	713.644871	841.985645	-116.679438	543.449686	1006.015370	-556.496203	704.875303	848.255073	-511.620167	12.599785	1156.846864	-316.197635	165.033431	1143.897504	-450.947170	132.990770	1133.541096	-171.168769	189.736815	1095.525260	-427.583989	180.799851	1099.622451	-198.481817	51.218304	1199.563356	-268.729346	70.577229	1215.359887	-352.298808	99.878720	1070.633424	-131.005342	82.332149	1062.136030	-496.154895	182.011628	1039.752410	-133.846651	266.416849	1018.380832	-142.400970	331.309425	967.305728	-118.903340	280.679071	1042.548412	-168.012041	443.798601	869.965574	-154.931130	438.059849	851.710913	-265.832023	436.251099	757.240802	-137.687206	431.263194	669.078994	-155.506519	387.525092	594.811992	-150.064600	443.549916	668.197517	-192.508234	342.590186	483.367124	-154.746822	348.627521	500.546692	-235.341739	266.210993	434.421118	-192.609265	552.824334	420.346363	-199.235901	446.131226	409.204807	-136.071781	468.784601	420.463246	-244.725352	176.857307	946.940404	-513.369689	239.147613	886.296629	-508.950465	265.424638	901.877300	-487.836866	262.536397	800.524877	-514.364153	304.790540	706.780552	-492.615800	303.481650	676.927712	-391.871313	255.242362	613.453810	-511.849001	227.837132	533.723790	-492.546194	160.820577	473.024057	-492.444897	246.530462	526.542330	-457.013069	92.385023	396.540732	-473.769123	107.376999	386.791383	-397.203251	14.825865	383.450936	-434.665801	248.802226	216.211249	-441.099412	147.309530	254.802028	-500.691616	-129.062781	870.428221	-314.612269	32.915457	82.143257	-515.253232	32.955302	82.200769	-115.077401	
